<?xml version="1.0" encoding="UTF-8"?><svg id="Calque_1" xmlns="http://www.w3.org/2000/svg" viewBox="0 0 500 500"><defs><style>.cls-1{fill:#fff;}.cls-2{fill:#4cc2ea;}</style></defs><circle class="cls-2" cx="250" cy="250" r="250"/><path class="cls-1" d="M335.55,355.62c8.7,0,16.06-3.18,22.08-9.53,6.02-6.36,9.03-13.88,9.03-22.58s-3.01-16.06-9.03-22.08c-6.02-6.02-13.38-9.03-22.08-9.03s-16.22,3.01-22.58,9.03c-6.36,6.02-9.53,13.38-9.53,22.08s3.18,16.22,9.53,22.58c6.36,6.36,13.88,9.53,22.58,9.53Zm-.5,62.72c11.04,0,21.07-2.34,30.11-7.02s16.73-11.37,23.08-20.07c-8.7-4.68-17.39-8.2-26.09-10.54-8.7-2.34-17.73-3.51-27.09-3.51s-18.48,1.17-27.35,3.51c-8.86,2.34-17.48,5.85-25.84,10.54,6.36,8.7,13.97,15.39,22.83,20.07,8.86,4.68,18.98,7.02,30.36,7.02Zm-105.37,32.61c-46.16-10.7-84.46-36.88-114.9-78.52-30.44-41.65-45.66-89.4-45.66-143.25V109.26L229.68,49.05l160.56,60.21V244.73c-4.68-2.34-9.7-4.43-15.05-6.27s-10.37-3.09-15.05-3.76v-104.36l-130.46-48.17-130.46,48.17v98.85c0,25.42,4.1,48.84,12.29,70.25,8.2,21.41,18.65,40.22,31.36,56.45,12.71,16.22,26.76,29.69,42.15,40.39,15.39,10.7,30.27,18.4,44.66,23.08,2.01,4.01,5.02,8.53,9.03,13.55,4.01,5.02,7.36,8.86,10.04,11.54-3.01,1.67-6.19,2.93-9.53,3.76-3.35,.84-6.52,1.76-9.53,2.76Zm106.87,0c-26.09,0-48.34-9.28-66.73-27.85-18.4-18.56-27.6-40.56-27.6-65.98s9.2-48.42,27.6-66.98c18.4-18.56,40.64-27.85,66.73-27.85s47.92,9.28,66.48,27.85c18.56,18.56,27.85,40.89,27.85,66.98s-9.28,47.42-27.85,65.98c-18.56,18.56-40.73,27.85-66.48,27.85Z"/></svg>