<?xml version="1.0" encoding="UTF-8"?><svg id="Calque_1" xmlns="http://www.w3.org/2000/svg" viewBox="0 0 500 500"><defs><style>.cls-1{fill:#fff;}.cls-2{fill:#4ec1ea;}</style></defs><g id="Groupe_1" transform="translate(-15 -742)"><g id="Mon_compte" transform="translate(-1388 83)"><circle id="Ellipse_7" class="cls-2" cx="250" cy="250" r="250"/></g><path id="pool_FILL0_wght400_GRAD0_opsz48" class="cls-1" d="M83.33,400.21v-26.67c8.7-.35,17.08-3.41,23.96-8.75,8.23-5.67,18.17-8.32,28.12-7.5,11.11-.49,22.09,2.65,31.25,8.96,8.07,5.98,17.88,9.12,27.92,8.96,9.49,.37,18.78-2.82,26.04-8.96,8.36-6.48,18.82-9.67,29.37-8.96,11.11-.49,22.09,2.65,31.25,8.96,8.07,5.98,17.88,9.12,27.92,8.96,9.55,.35,18.9-2.84,26.25-8.96,8.45-6.46,18.96-9.65,29.58-8.96,9.9-.84,19.77,1.82,27.92,7.5,6.79,5.37,15.1,8.43,23.75,8.75v26.67c-9.13-.61-17.89-3.87-25.21-9.38-7.66-5.6-16.98-8.46-26.46-8.12-9.76-.26-19.32,2.83-27.08,8.75-8.31,6.09-18.45,9.18-28.75,8.75-10.79,.25-21.41-2.8-30.42-8.75-8.46-5.79-18.5-8.84-28.75-8.75-9.94-.19-19.68,2.88-27.71,8.75-8.58,6.04-18.89,9.11-29.37,8.75-10.55,.34-20.92-2.73-29.58-8.75-8.12-5.85-17.91-8.92-27.92-8.75-9.54-.31-18.92,2.54-26.67,8.12-7.41,5.48-16.22,8.74-25.42,9.38Zm0-78.33v-25c8.67-.34,17.03-3.32,23.96-8.54,8.29-5.52,18.2-8.09,28.12-7.29,10.71-.56,21.34,2.2,30.42,7.92,7.97,5.42,17.45,8.19,27.08,7.92,9.57,.29,18.99-2.48,26.88-7.92,8.99-5.73,19.56-8.5,30.21-7.92,10.71-.56,21.34,2.2,30.42,7.92,7.97,5.42,17.45,8.19,27.08,7.92,9.64,.27,19.11-2.5,27.08-7.92,9.08-5.72,19.7-8.48,30.42-7.92,9.87-.83,19.72,1.74,27.92,7.29,6.84,5.24,15.14,8.22,23.75,8.54v25c-9.13-.61-17.89-3.87-25.21-9.38-7.66-5.6-16.98-8.46-26.46-8.12-9.76-.26-19.32,2.83-27.08,8.75-8.31,6.09-18.45,9.18-28.75,8.75-10.79,.25-21.41-2.8-30.42-8.75-8.46-5.79-18.5-8.84-28.75-8.75-9.7-.28-19.2,2.81-26.88,8.75-8.23,6.11-18.3,9.2-28.54,8.75-10.79,.25-21.41-2.8-30.42-8.75-8.46-5.79-18.5-8.84-28.75-8.75-9.54-.31-18.92,2.54-26.67,8.13-7.41,5.48-16.22,8.74-25.42,9.37Zm109.58-76.25c-4.68,.07-9.31-.93-13.54-2.92-3.7-1.68-6.92-4.26-9.38-7.5l56.25-56.25-22.5-22.5c-7.97-8.48-17.81-14.98-28.75-18.96-12.04-3.51-24.55-5.13-37.08-4.79v-32.92c16.78-.52,33.51,2.03,49.38,7.5,14.23,5.89,27.08,14.69,37.71,25.83l105.42,105.42c-3.12,2.53-6.74,4.38-10.63,5.42-4,1.11-8.14,1.67-12.29,1.67-9.82,.24-19.44-2.85-27.29-8.75-8.82-6.19-19.45-9.27-30.21-8.75-10.7-.55-21.27,2.54-30,8.75-7.76,5.92-17.32,9.01-27.08,8.75Zm135.42-65c-21.63,.23-39.35-17.12-39.58-38.75,0-.28,0-.56,0-.84,0-21.86,17.72-39.58,39.58-39.58s39.58,17.72,39.58,39.58c.23,21.63-17.12,39.35-38.75,39.58-.28,0-.56,0-.84,0Z"/></g></svg>