<?xml version="1.0" encoding="UTF-8"?><svg id="Calque_1" xmlns="http://www.w3.org/2000/svg" viewBox="0 0 500 500"><defs><style>.cls-1{fill:#fff;}.cls-2{fill:#21b9da;}</style></defs><g id="Mon_compte" transform="translate(-1403 -659)"><circle id="Ellipse_7" class="cls-2" cx="250" cy="250" r="250"/><path id="person_FILL0_wght400_GRAD0_opsz48" class="cls-1" d="M250,241.67c-33.07,1.44-61.06-24.2-62.5-57.27-.08-1.74-.08-3.49,0-5.23-1.44-33.07,24.2-61.06,57.27-62.5,1.74-.08,3.49-.08,5.23,0,33.07-1.44,61.06,24.2,62.5,57.27,.08,1.74,.08,3.49,0,5.23,1.44,33.07-24.2,61.06-57.27,62.5-1.74,.08-3.49,.08-5.23,0ZM116.67,375.42v-39.17c-.27-9.64,2.5-19.11,7.92-27.08,5.17-7.41,12.21-13.3,20.42-17.08,17.24-7.86,35.16-14.13,53.54-18.75,16.84-4.14,34.12-6.24,51.46-6.25,17.29,0,34.5,2.18,51.25,6.46,18.24,4.75,36.08,10.95,53.33,18.54,8.37,3.69,15.57,9.6,20.83,17.08,5.42,7.97,8.19,17.45,7.92,27.08v39.17H116.67Zm25-25h216.67v-14.17c-.03-4.54-1.41-8.96-3.96-12.71-2.4-3.81-5.78-6.91-9.79-8.96-15.5-7.79-31.86-13.74-48.75-17.71-15.06-3.23-30.43-4.84-45.83-4.79-15.54-.03-31.04,1.58-46.25,4.79-16.91,3.88-33.29,9.83-48.75,17.71-8.05,4.26-13.16,12.56-13.33,21.67v14.17Zm108.33-133.75c20.06,.65,36.85-15.08,37.5-35.15,.03-.78,.03-1.57,0-2.35,.65-20.06-15.08-36.85-35.15-37.5-.78-.03-1.57-.03-2.35,0-20.06-.65-36.85,15.08-37.5,35.15-.03,.78-.03,1.57,0,2.35-.65,20.06,15.08,36.85,35.15,37.5,.78,.03,1.57,.03,2.35,0Z"/></g></svg>