<?xml version="1.0" encoding="UTF-8"?><svg id="Calque_2" xmlns="http://www.w3.org/2000/svg" xmlns:xlink="http://www.w3.org/1999/xlink" viewBox="0 0 500 500"><defs><style>.cls-1{fill:url(#Dégradé_sans_nom_248);}.cls-2{fill:#a3fa16;fill-rule:evenodd;stroke:#fff;stroke-miterlimit:10;stroke-width:2px;}.cls-3{fill:url(#Dégradé_sans_nom_247);}.cls-4{fill:url(#Dégradé_sans_nom_246);}</style><linearGradient id="Dégradé_sans_nom_247" x1="222.01" y1="159.32" x2="114.27" y2="51.58" gradientTransform="matrix(1, 0, 0, 1, 0, 0)" gradientUnits="userSpaceOnUse"><stop offset="0" stop-color="#23d2fa"/><stop offset="1" stop-color="blue"/></linearGradient><linearGradient id="Dégradé_sans_nom_248" x1="165.47" y1="323.95" x2="57.09" y2="432.33" gradientTransform="matrix(1, 0, 0, 1, 0, 0)" gradientUnits="userSpaceOnUse"><stop offset="0" stop-color="#23d2fa"/><stop offset=".1" stop-color="#21cbfa"/><stop offset=".25" stop-color="#1eb8fa"/><stop offset=".42" stop-color="#1999fb"/><stop offset=".61" stop-color="#126ffc"/><stop offset=".81" stop-color="#0939fd"/><stop offset="1" stop-color="blue"/></linearGradient><linearGradient id="Dégradé_sans_nom_246" x1="349.53" y1="288.8" x2="507.75" y2="325.16" gradientTransform="matrix(1, 0, 0, 1, 0, 0)" gradientUnits="userSpaceOnUse"><stop offset=".05" stop-color="#23d2fa"/><stop offset=".19" stop-color="#1eb8fa"/><stop offset=".49" stop-color="#1478fc"/><stop offset=".93" stop-color="#0211fe"/><stop offset="1" stop-color="blue"/></linearGradient></defs><g id="Logo"><g id="goutte"><path class="cls-3" d="M396.07,124.22c-2.02,0-153.68-77.15-196.14,58.88-42.46,136.02-169.85,60.91-109.19-42.63C151.4,36.92,305.08,8.5,396.07,124.22Z"/><path class="cls-1" d="M66.51,188.3c.96,1.79,5.09,172.43,144.52,145.58,139.43-26.85,133.85,121.37,14.3,116.75-119.56-4.62-217.25-127.06-158.82-262.32Z"/><path class="cls-4" d="M288.65,445.32c1.01-1.76,143.33-95.13,47.18-200.01-96.15-104.88,32.29-178.16,91.33-73.68,59.04,104.48,6.8,252.35-138.5,273.68Z"/></g><g id="swimmer-297723" transform="translate(0.003 0)"><path id="Tracé_2" class="cls-2" d="M138.9,290.81l81.17-43.49c-6.38-14.06-10.89-24.66-13.52-32.22-2.7-7.51-3.83-9.19-2.31-12.76,1.56-3.68-.6-4.24,11.28-9.11,11.88-5.06,47.43-19.57,59.04-20.27,11.35-.6,10.89,11.98,9.01,16.22-2.06,4.13-12.63,5.17-20.65,8.44-8.12,3.12-17.07,6.62-27.39,10.49l37.15,82.06c-4.79,4.13-11.14,5.73-19.73,5.1-8.73-.85-20.37-9.19-31.22-9.23-10.82,.04-23.17,9.34-33.07,9.52-9.93-.04-17.81-8.07-26.11-8.89-8.12-.86-16.31,.57-23.66,4.13h0Z"/><path id="Tracé_3" class="cls-2" d="M298.41,227.87c12.51,0,22.67,10.65,22.67,23.77s-10.16,23.77-22.67,23.77-22.67-10.65-22.67-23.77,10.16-23.77,22.67-23.77"/><path class="cls-2" d="M303.28,301c-4.4-1.01-8.41-5.69-15.72-5.43-7.49,.26-18.06,6.99-28.28,6.99-10.36-.22-22-7.29-32.57-7.29-10.54,.08-20.12,7.4-30.23,7.63-10.29,.04-20.54-6.84-30.62-6.99-8.97-.23-17.53,4.64-25.94,5.78v19.75c8.41-1.14,16.97-5.98,25.94-5.82,10.08,.15,20.33,7.03,30.62,6.99,10.11-.22,19.69-7.55,30.23-7.63,10.57-.04,22.21,7.14,32.57,7.33,10.21,0,20.79-6.74,28.28-6.99,7.31-.34,11.32,4.43,15.72,5.39,4.33,.93,7.63,1.08,10.18,.3v-19.72c-2.55,.78-5.85,.63-10.18-.3Z"/></g></g></svg>