<?xml version="1.0" encoding="UTF-8"?><svg id="Calque_1" xmlns="http://www.w3.org/2000/svg" viewBox="0 0 500 500"><defs><style>.cls-1{fill:#fff;}.cls-2{fill:#21b9da;}</style></defs><g id="Panier" transform="translate(-1316 -659)"><circle id="Ellipse_6" class="cls-2" cx="250.1" cy="250.1" r="249.9"/><path id="shopping_cart_FILL0_wght400_GRAD0_opsz48" class="cls-1" d="M181.8,416.28c-16.56,.07-30.05-13.29-30.12-29.85-.07-16.56,13.29-30.05,29.85-30.12,7.98-.04,15.65,3.11,21.3,8.75,5.83,5.51,9.08,13.22,8.95,21.24,.07,16.49-13.24,29.92-29.74,29.99-.08,0-.17,0-.25,0Zm166.6,0c-16.56,.07-30.05-13.29-30.12-29.85s13.29-30.05,29.85-30.12c7.98-.04,15.65,3.11,21.3,8.75,5.83,5.51,9.08,13.22,8.95,21.24,.07,16.49-13.24,29.92-29.74,29.99-.08,0-.17,0-.25,0ZM160.14,141.4l45.81,94.96h119.95l52.06-94.96H160.14Zm-12.49-24.99h245.32c8.89,0,14.51,2.71,16.87,8.12,2.3,6.04,1.44,12.84-2.29,18.12l-56.23,101.21c-2.94,4.9-6.92,9.09-11.66,12.29-4.74,3.39-10.42,5.21-16.24,5.21h-126.2l-23.32,43.32h204.5v24.99H177.63c-9.87,.85-19.46-3.58-25.2-11.66-5.15-8.01-5.07-18.31,.21-26.24l26.66-49.15L115.99,108.49h-32.49v-24.99h48.73l15.41,32.9Zm58.31,119.95h0Z"/></g></svg>